<svg width="100" height="100" viewBox="0 0 100 100" fill="none" xmlns="http://www.w3.org/2000/svg">
<g clip-path="url(#clip0_13_10)">
<path fill-rule="evenodd" clip-rule="evenodd" d="M30 0C13.4315 0 0 13.4315 0 30V70C0 86.5685 13.4315 100 30 100H70C86.5685 100 100 86.5685 100 70V30C100 13.4315 86.5685 0 70 0H30ZM33.6667 17C24.4619 17 17 24.4619 17 33.6667V66.3333C17 75.5381 24.4619 83 33.6667 83C35.5076 83 37 81.5076 37 79.6667V20.3333C37 18.4924 35.5076 17 33.6667 17ZM42 66.3333C42 64.4924 43.4924 63 45.3333 63H66.3333C75.5381 63 83 70.4619 83 79.6667C83 81.5076 81.5076 83 79.6667 83H58.6667C49.4619 83 42 75.5381 42 66.3333ZM62.5 58C73.8218 58 83 48.8218 83 37.5C83 26.1782 73.8218 17 62.5 17C51.1782 17 42 26.1782 42 37.5C42 48.8218 51.1782 58 62.5 58Z" fill="black"/>
</g>
<defs>
<clipPath id="clip0_13_10">
<rect width="100" height="100" fill="white"/>
</clipPath>
</defs>
</svg>
